# xmcd CD database file generated by Grip 2.9
# 
# Track frame offsets:
#       150
#       8812
#       21107
#       38222
#       50585
#       69397
#       80190
#       94062
#       107040
#       118067
#       129247
#       146995
#       162255
#       177970
#       199885
#       212322
# 
# Disc length: 3088 seconds
# 
# Revision: 3
# Processed by: cddbd v1.4PL0 Copyright (c) Steve Scherf et al.
# Submitted via: Grip 2.9
# 
DISCID=df0c0e10
DTITLE=Zydeco Crayz - Shake Whatcha Got!
DYEAR=1900
DGENRE=
TTITLE0=Sweet Bernadette
TTITLE1=Oh 'Til Johnny
TTITLE2=Keep Your Dress Tail Down
TTITLE3=Loup Garou
TTITLE4=Midland Two Step
TTITLE5=Blue Runner Blues
TTITLE6=Zydeco Stomp
TTITLE7=Baby Please Don't Go
TTITLE8=Shake Whatcha Got
TTITLE9=Ton Mama
TTITLE10=Barres de la Prison
TTITLE11=Madeleine
TTITLE12=Canray's Bernadette
TTITLE13=Lucille
TTITLE14=Morning Train
TTITLE15=Danse de Mardi Gras
EXTD=
EXTT0=
EXTT1=
EXTT2=
EXTT3=
EXTT4=
EXTT5=
EXTT6=
EXTT7=
EXTT8=
EXTT9=
EXTT10=
EXTT11=
EXTT12=
EXTT13=
EXTT14=
EXTT15=
PLAYORDER=
